<svg xmlns="http://www.w3.org/2000/svg" viewBox="0 0 16 16">
<rect x="7" y="3" width="1" height="1" fill="#1a56a3"/>
<rect x="8" y="3" width="1" height="1" fill="#1b539d"/>
<rect x="7" y="4" width="1" height="1" fill="#1b56a1"/>
<rect x="8" y="4" width="1" height="1" fill="#194e95"/>
<rect x="7" y="5" width="1" height="1" fill="#60a9fa"/>
<rect x="8" y="5" width="1" height="1" fill="#60adfa"/>
<rect x="6" y="6" width="1" height="1" fill="#255dad"/>
<rect x="7" y="6" width="1" height="1" fill="#5fa9f9"/>
<rect x="8" y="6" width="1" height="1" fill="#60a9fa"/>
<rect x="9" y="6" width="1" height="1" fill="#1a53a0"/>
<rect x="6" y="7" width="1" height="1" fill="#2a61aa"/>
<rect x="7" y="7" width="1" height="1" fill="#77d2ff"/>
<rect x="8" y="7" width="1" height="1" fill="#5eabfa"/>
<rect x="9" y="7" width="1" height="1" fill="#19519e"/>
<rect x="5" y="8" width="1" height="1" fill="#1953a0"/>
<rect x="6" y="8" width="1" height="1" fill="#b4e5ff"/>
<rect x="7" y="8" width="1" height="1" fill="#60aafa"/>
<rect x="8" y="8" width="1" height="1" fill="#5fabf9"/>
<rect x="9" y="8" width="1" height="1" fill="#60abf8"/>
<rect x="10" y="8" width="1" height="1" fill="#18549f"/>
<rect x="4" y="9" width="1" height="1" fill="#19519e"/>
<rect x="5" y="9" width="1" height="1" fill="#5facfa"/>
<rect x="6" y="9" width="1" height="1" fill="#b6e7ff"/>
<rect x="7" y="9" width="1" height="1" fill="#5daafb"/>
<rect x="8" y="9" width="1" height="1" fill="#60aaf8"/>
<rect x="9" y="9" width="1" height="1" fill="#4490ec"/>
<rect x="10" y="9" width="1" height="1" fill="#2d72c3"/>
<rect x="11" y="9" width="1" height="1" fill="#18519d"/>
<rect x="4" y="10" width="1" height="1" fill="#1a539e"/>
<rect x="5" y="10" width="1" height="1" fill="#5fa9f9"/>
<rect x="6" y="10" width="1" height="1" fill="#4799f6"/>
<rect x="7" y="10" width="1" height="1" fill="#60aaf9"/>
<rect x="8" y="10" width="1" height="1" fill="#5daaf9"/>
<rect x="9" y="10" width="1" height="1" fill="#2b6ebf"/>
<rect x="10" y="10" width="1" height="1" fill="#2f72c1"/>
<rect x="11" y="10" width="1" height="1" fill="#17509c"/>
<rect x="5" y="11" width="1" height="1" fill="#19529e"/>
<rect x="6" y="11" width="1" height="1" fill="#4492ee"/>
<rect x="7" y="11" width="1" height="1" fill="#5fa8f9"/>
<rect x="8" y="11" width="1" height="1" fill="#3f90eb"/>
<rect x="9" y="11" width="1" height="1" fill="#2d70c2"/>
<rect x="10" y="11" width="1" height="1" fill="#17509b"/>
<rect x="6" y="12" width="1" height="1" fill="#1b549f"/>
<rect x="7" y="12" width="1" height="1" fill="#2d6ec1"/>
<rect x="8" y="12" width="1" height="1" fill="#2b70bf"/>
<rect x="9" y="12" width="1" height="1" fill="#174f9c"/>
<rect x="7" y="13" width="1" height="1" fill="#1f63b6"/>
<rect x="8" y="13" width="1" height="1" fill="#1e62b8"/>
</svg>